<?xml version="1.0" encoding="utf-8"?><svg version="1.1" id="Layer_1" xmlns="http://www.w3.org/2000/svg" xmlns:xlink="http://www.w3.org/1999/xlink" x="0px" y="0px" viewBox="0 0 122.82 122.88" style="enable-background:new 0 0 122.82 122.88" xml:space="preserve"><style type="text/css"><![CDATA[
	.st0{fill-rule:evenodd;clip-rule:evenodd;fill:#5FCAF4;}
]]></style><g><path class="st0" d="M61.41,0C27.49,0,0,27.51,0,61.44c0,31.15,23.18,56.89,53.22,60.9v-12.38c0-3.49-2.2-6.63-5.51-7.74 c-17.33-5.83-29.74-22.4-29.28-41.81c0.56-23.63,19.79-42.21,43.42-41.97c23.54,0.24,42.54,19.4,42.54,43.01 c0,0.54-0.01,1.07-0.03,1.61c0,0.12-0.01,0.24-0.01,0.36c-0.02,0.5-0.05,0.99-0.09,1.48c-0.01,0.16-0.03,0.31-0.04,0.47 c-0.03,0.34-0.07,0.68-0.1,1.02c-0.04,0.39-0.09,0.77-0.15,1.15c-0.02,0.17-0.05,0.35-0.07,0.52 c-5.26,34.69-50.42,54.18-50.67,54.29c2.68,0.36,5.41,0.54,8.18,0.54c33.92,0,61.41-27.51,61.41-61.44 C122.82,27.51,95.32,0,61.41,0L61.41,0z"/></g></svg>